<?xml version="1.0" encoding="UTF-8" standalone="no"?>
<svg
   version="1.0"
   width="11542.653"
   height="4439.4268"
   viewBox="0 0 11542.653 4439.4265"
   preserveAspectRatio="xMidYMid"
   id="svg9"
   sodipodi:docname="dark-text.svg"
   inkscape:version="1.3 (0e150ed6c4, 2023-07-21)"
   xmlns:inkscape="http://www.inkscape.org/namespaces/inkscape"
   xmlns:sodipodi="http://sodipodi.sourceforge.net/DTD/sodipodi-0.dtd"
   xmlns="http://www.w3.org/2000/svg"
   xmlns:svg="http://www.w3.org/2000/svg">
  <defs
     id="defs9">
    <rect
       x="1491.0988"
       y="1452.5833"
       width="3625.9561"
       height="1050.922"
       id="rect4" />
    <rect
       x="528.2121"
       y="2839.1401"
       width="4610.8516"
       height="676.77179"
       id="rect2" />
    <rect
       x="594.23865"
       y="2828.1357"
       width="3570.9341"
       height="594.23865"
       id="rect1" />
    <rect
       x="1426.1583"
       y="2892.6797"
       width="2143.5208"
       height="399.04922"
       id="rect9" />
  </defs>
  <sodipodi:namedview
     id="namedview9"
     pagecolor="#505050"
     bordercolor="#eeeeee"
     borderopacity="1"
     inkscape:showpageshadow="0"
     inkscape:pageopacity="0"
     inkscape:pagecheckerboard="0"
     inkscape:deskcolor="#d1d1d1"
     inkscape:zoom="0.064256621"
     inkscape:cx="5602.5355"
     inkscape:cy="3042.488"
     inkscape:window-width="1002"
     inkscape:window-height="833"
     inkscape:window-x="2181"
     inkscape:window-y="306"
     inkscape:window-maximized="0"
     inkscape:current-layer="svg9"
     showguides="true" />
  <g
     fill="#4B5F62"
     id="g9"
     transform="matrix(2.2868809,0,0,2.2868809,-358.97618,-2447.2623)">
    <path
       d="m 1049.6205,2496.9196 -4.5704,-9.1408 -1.1032,-54.3722 c -0.6305,-37.5089 -1.7337,-58.1545 -3.3097,-66.3497 -3.3096,-16.8633 -12.608,-43.4977 -22.064,-62.8826 -9.7712,-20.1728 -15.4448,-29.7864 -36.24814,-61.7793 -4.8856,-7.5648 -8.9832,-14.3417 -8.9832,-14.8145 0,-0.4728 -1.4184,-2.8368 -3.3096,-5.0432 -2.9944,-4.0976 -17.6513,-26.9496 -24.1129,-38.4545 -1.7336,-2.8368 -6.304,-10.5592 -10.0864,-17.0208 -10.5592,-17.8088 -34.0417,-65.4042 -38.7697,-78.8002 -2.364,-6.4616 -4.8856,-12.4504 -5.6736,-13.396 -0.6304,-0.788 -3.7824,-10.0864 -6.9344,-20.4881 -3.152,-10.4016 -6.4616,-20.0152 -7.092,-21.4336 -0.788,-1.2608 -3.6249,-12.608 -6.4617,-25.2161 -2.8368,-12.4504 -5.6736,-23.7976 -6.4616,-25.3736 -1.7336,-3.6248 -5.8312,-35.3025 -6.7768,-53.269 -0.3152,-8.1952 -0.3152,-13.2384 0,-11.032 0.4728,2.2064 1.4184,5.3584 2.2064,7.092 0.6304,1.7336 1.7336,6.304 2.364,10.244 1.4184,10.2441 8.668,42.5522 10.244,45.5466 0.788,1.4184 3.6249,10.7168 6.4617,20.6456 2.6792,9.9288 5.516,18.9121 6.1464,19.7001 0.788,0.9456 2.8368,6.1464 4.728,11.82 1.8912,5.6736 5.0432,13.8688 7.092,18.124 1.8912,4.4128 5.516,12.4505 8.0376,18.1241 2.364,5.6736 5.2008,11.3472 6.1464,12.608 0.9456,1.2608 4.4128,7.7224 7.5649,14.184 7.092,14.6569 15.76,30.2593 21.7488,38.9273 2.5216,3.6248 4.5704,6.9344 4.5704,7.4072 0,0.4728 4.728,7.7225 10.7168,16.0753 5.8313,8.1952 12.4505,17.9664 14.9721,21.5912 2.364,3.6248 5.6736,8.3528 7.4072,10.5593 1.7336,2.2064 10.0864,13.5536 18.7544,25.216 8.66814,11.6624 17.17854,23.0097 18.75454,25.2161 1.576,2.2064 7.4072,10.7168 12.9232,18.912 5.516,8.1952 11.3472,17.0209 13.0808,19.5425 4.5705,6.6192 23.1673,43.9705 23.1673,46.3345 0,1.1032 1.4184,4.8856 2.9944,8.668 19.7001,43.4977 15.2872,143.1011 -7.4072,167.0564 -2.2064,2.364 -4.5704,4.2552 -5.2008,4.2552 -0.6304,0 -3.152,-4.0976 -5.516,-8.9832 z"
       id="path1"
       style="stroke-width:0.788002" />
    <path
       d="m 871.37436,2462.7203 c -24.2704,-10.5592 -83.6858,-63.8282 -108.429,-97.0818 -6.6192,-9.1409 -12.608,-17.6513 -13.0808,-18.9121 -0.4728,-1.2608 -1.7336,-3.4672 -2.8369,-4.728 -7.7224,-9.1408 -22.2216,-43.4977 -25.0584,-59.1001 -0.6304,-3.4672 -2.0488,-7.2496 -2.9944,-8.5104 -2.364,-2.9945 -2.364,-51.8506 0,-57.0514 0.9456,-2.0488 3.6248,-13.7112 5.9888,-25.8464 2.364,-12.1353 5.9888,-26.9497 8.0376,-33.0961 2.0488,-5.9888 5.516,-18.1241 7.88,-26.7921 2.2064,-8.668 4.728,-17.0208 5.6736,-18.5968 1.4185,-2.5216 9.6137,-34.0417 14.9721,-57.0514 5.6736,-25.216 10.0864,-69.9745 10.0864,-103.8586 0,-11.5048 0.6304,-21.4337 1.4184,-22.2217 0.788,-0.9456 1.7336,-3.3096 2.0488,-5.516 0.3152,-2.2064 1.2608,3.94 2.2064,13.3961 2.0488,25.0584 1.7336,90.1474 -0.6304,109.5322 -2.9944,23.1673 -7.88,52.1657 -9.6136,55.9481 -0.788,1.7337 -3.7824,14.1841 -6.6192,27.5801 -2.8368,13.396 -5.516,25.2161 -6.304,26.0041 -1.576,2.2064 -8.8257,40.1881 -10.2441,53.5841 -0.6304,6.1464 -1.7336,11.82 -2.5216,12.9232 -3.3096,4.2552 0.788,38.2969 7.4073,60.8338 2.8368,9.9288 15.2872,34.3569 18.912,37.3513 1.2608,1.1032 2.364,2.8368 2.364,3.7824 0,1.7336 12.7656,18.2816 23.7977,30.732 3.6248,3.9401 23.3248,24.2705 43.9705,45.0738 34.5144,34.8296 38.1393,38.9272 44.7585,51.6929 3.94,7.5648 7.2496,14.184 7.2496,14.4992 0,2.0488 -8.1952,0 -18.4393,-4.5704 z"
       id="path2"
       style="stroke-width:0.788002" />
    <path
       d="m 1245.9905,2428.6786 c -29.6288,-5.516 -39.2425,-8.9832 -51.5353,-18.2816 -6.304,-4.728 -11.5048,-9.2984 -11.5048,-10.0864 0,-0.9457 3.7824,-3.4673 8.3528,-5.6737 7.88,-4.0976 9.456,-4.2552 47.5953,-5.516 21.7489,-0.6304 45.0737,-2.2064 52.0081,-3.4672 30.2593,-5.516 71.2354,-32.3081 95.8211,-62.7249 16.0752,-20.0153 32.308,-47.9105 38.1393,-66.0346 1.576,-4.728 3.3096,-9.456 4.0976,-10.244 2.0488,-2.6792 7.4072,-31.9929 8.3528,-46.8073 1.576,-20.8033 -2.8368,-56.1058 -8.5104,-68.241 -0.788,-1.7336 -3.6248,-8.5104 -6.4617,-14.972 -2.6792,-6.4616 -5.3584,-12.1352 -5.9888,-12.6081 -0.4728,-0.4728 -3.6248,-4.8856 -6.9344,-10.0864 -11.5048,-17.336 -54.0569,-58.3121 -75.1754,-72.1809 -2.2064,-1.4184 -10.244,-6.9345 -17.8088,-12.2929 -7.7224,-5.2008 -16.548,-10.8744 -19.7001,-12.608 -3.152,-1.7336 -12.9232,-7.7224 -21.5912,-13.396 -8.668,-5.516 -16.2328,-10.0865 -16.8632,-10.2441 -0.788,0 -6.3041,-3.152 -12.6081,-7.092 -6.304,-3.94 -11.9776,-7.092 -12.7656,-7.092 -0.6304,0 -5.0432,-2.5216 -9.7712,-5.3584 -4.728,-2.9944 -11.5049,-7.092 -15.2873,-8.9832 -3.7824,-1.8912 -7.092,-3.94 -7.5648,-4.5704 -0.4728,-0.6304 -3.3096,-2.364 -6.304,-3.94 -2.9944,-1.5761 -9.6136,-5.5161 -14.4992,-8.9833 -5.0432,-3.3096 -10.4017,-6.6192 -11.8201,-7.092 -1.576,-0.6304 -10.0864,-6.1464 -19.0696,-12.1352 -8.9832,-6.1464 -17.4936,-11.9776 -19.0696,-12.7656 -7.7225,-4.4129 -36.7209,-28.3681 -52.1658,-43.1825 -15.1296,-14.6569 -9.6136,-11.8201 11.6625,5.8312 3.4672,2.6792 7.092,5.0432 8.1952,5.0432 0.9456,0 2.2064,1.1032 2.8368,2.364 0.4728,1.2608 1.8912,2.364 3.3096,2.364 1.2608,0 2.364,0.788 2.364,1.576 0,0.9456 0.6304,1.576 1.576,1.576 0.788,0 6.6192,3.3096 12.9232,7.2496 25.5313,16.0753 51.693,29.9441 107.6411,56.5785 60.9913,29.1561 115.8363,57.3666 122.9283,63.3554 0.9456,0.788 4.728,3.152 8.668,5.3584 3.94,2.2064 12.608,8.1952 19.5424,13.2384 6.7769,5.2009 14.8145,11.1897 17.9665,13.2385 16.548,11.032 49.0137,48.5409 60.3609,69.8169 2.0488,3.7824 4.5704,7.8801 5.516,9.1409 2.0488,2.5216 5.3585,11.1896 9.6137,24.428 1.2608,4.4128 2.9944,8.668 3.6248,9.456 0.788,0.9456 2.5216,8.3529 4.0976,16.5481 4.8856,27.58 2.5216,87.153 -4.0976,98.973 -0.788,1.4184 -2.9944,8.1952 -4.728,14.972 -6.1465,22.5369 -24.5857,60.361 -39.4001,80.5338 -9.9289,13.5537 -33.2537,38.7697 -35.7753,38.7697 -0.788,0 -2.8368,1.4184 -4.4128,3.152 -6.9344,7.7225 -41.6065,26.7921 -48.6985,26.7921 -0.9456,0 -3.7825,1.1032 -6.3041,2.364 -13.7112,7.092 -62.7249,9.2984 -90.7778,3.94 z"
       id="path3"
       style="stroke-width:0.788002" />
    <path
       d="m 163.43356,2417.3314 c -5.516,-2.6792 -6.4616,-3.7824 -6.4616,-8.3528 0,-6.6192 2.8368,-9.9289 23.3248,-26.7921 17.4936,-14.4992 35.3025,-34.0417 46.1769,-50.5897 3.4672,-5.0432 6.6192,-9.9288 7.4072,-10.8744 2.0488,-2.8368 17.6513,-30.2593 17.6513,-31.3625 0,-0.4728 2.5216,-5.9888 5.6736,-12.2928 8.8256,-17.9665 23.1672,-52.7962 36.0905,-87.153 2.8368,-7.7225 7.092,-18.2817 9.2984,-23.3249 2.2064,-5.0432 4.0976,-9.7712 4.0976,-10.7168 0,-0.788 2.364,-6.6192 5.3584,-12.9233 2.8368,-6.304 5.8312,-13.0808 6.4616,-15.2872 2.6792,-8.3528 17.9665,-40.1881 26.3193,-54.3721 18.124,-31.0473 25.0585,-40.6609 44.4433,-61.937 19.5424,-21.5912 49.9593,-47.1225 72.6538,-61.1489 4.2552,-2.6792 12.4504,-7.7224 18.124,-11.3472 5.6736,-3.6249 14.4993,-8.9833 19.7001,-11.8201 23.3248,-13.2384 37.0361,-20.9608 46.4921,-26.1616 14.0264,-7.8801 19.3848,-11.0321 28.8408,-17.3361 4.5705,-2.8368 11.3473,-7.092 15.1297,-9.2984 6.9344,-3.7824 23.9552,-15.6024 28.5256,-19.7 1.2608,-1.1032 5.2009,-4.0977 8.6681,-6.6193 11.1896,-8.0376 27.58,-24.9008 35.7752,-37.036 11.3473,-16.3905 14.1841,-24.4281 15.1297,-43.3401 1.1032,-23.7977 -2.0488,-33.8841 -24.5857,-79.9034 -10.4016,-21.1185 -20.3304,-42.2369 -21.9064,-46.9649 -1.576,-4.7281 -3.3096,-8.9833 -3.7824,-9.4561 -0.6304,-0.4728 -2.6792,-7.5648 -4.728,-15.76 -4.7281,-19.5425 -5.2009,-51.8505 -0.788,-68.5562 5.0432,-19.2272 22.3792,-52.6385 35.46,-67.9257 2.2064,-2.6792 6.6193,-7.88 9.6137,-11.6625 5.9888,-7.5648 33.7264,-35.1448 44.4433,-44.2857 3.7824,-3.152 9.6136,-8.1952 13.0808,-11.1896 3.4672,-2.9944 13.0808,-10.5592 21.276,-16.7056 8.1953,-6.1464 17.1785,-12.9233 19.8577,-15.1297 2.8368,-2.364 5.3584,-4.0976 5.9888,-4.0976 0.4728,0 9.6136,-5.8312 20.4881,-12.9232 10.7168,-7.2496 23.3248,-15.1296 27.8952,-17.8088 4.728,-2.5217 13.0809,-7.4073 18.7545,-10.5593 5.6736,-3.152 21.276,-11.1896 34.672,-17.8088 13.3961,-6.6192 27.5801,-13.5536 31.5201,-15.6025 3.94,-2.0488 8.8256,-4.2552 11.032,-4.8856 2.2065,-0.6304 7.5649,-2.8368 12.1353,-5.0432 22.6944,-10.5592 79.74584,-28.9984 113.15704,-36.7209 11.3473,-2.5216 23.3249,-5.3584 26.7921,-6.1464 24.7433,-6.1464 87.6258,-10.244 122.9283,-8.0376 23.0097,1.576 54.6873,6.4616 60.5185,9.456 1.4184,0.6304 8.1953,3.152 15.1297,5.516 30.5745,10.4017 59.5729,33.0961 70.4473,55.1602 8.5105,17.0208 12.2929,41.7641 9.4561,61.4641 -5.2008,36.0905 -23.1673,79.5882 -47.5953,114.7331 -4.7281,6.9344 -10.5593,15.1296 -12.7657,18.4392 -17.8088,26.6345 -77.2242,85.8922 -118.8307,118.9883 -3.3096,2.6792 -8.9832,7.2496 -12.608,10.244 -3.6248,2.9944 -15.4448,12.6081 -26.004,21.2761 -27.5801,22.3792 -30.2593,24.7432 -49.6442,44.2857 -27.58,27.8953 -31.52,34.6721 -30.4168,50.7473 0.9456,13.2384 4.728,20.9609 17.1784,34.1993 14.3416,15.1296 21.1185,19.8576 57.0513,38.9273 10.0865,5.516 18.4393,10.7168 18.4393,11.82 0,2.8368 -0.4728,2.6792 -19.3849,-3.3096 -20.488,-6.6192 -37.3513,-14.4992 -53.8993,-25.5313 -16.2328,-10.7168 -23.9552,-18.912 -32.4657,-34.5144 -6.9344,-12.4505 -6.9344,-12.7657 -6.9344,-28.3681 0,-14.8144 0.3152,-16.3904 5.3584,-26.6345 13.0809,-26.1616 39.5577,-52.9537 100.8643,-102.125 3.94,-3.152 9.456,-7.5648 11.9776,-9.7712 2.6792,-2.2064 11.5048,-9.6137 19.8576,-16.5481 52.9538,-43.9705 93.2995,-86.9954 117.8851,-126.2379 4.728,-7.4072 9.7712,-15.1296 11.1896,-17.336 1.5761,-2.2064 5.0433,-9.2984 7.8801,-15.76 2.8368,-6.4617 5.6736,-12.6081 6.4616,-13.3961 2.6792,-3.6248 9.1408,-29.4712 10.7168,-43.6553 1.8912,-17.1784 0.1576,-36.8785 -4.2552,-46.6497 -6.1464,-13.8688 -30.8897,-33.4113 -49.1713,-38.9273 -2.2064,-0.6304 -6.9344,-2.5216 -10.5592,-4.0976 -8.8257,-3.94 -33.5689,-8.9832 -50.4322,-10.4016 -7.2496,-0.4728 -13.5536,-1.576 -14.0264,-2.364 -1.1032,-1.7336 -52.0081,-1.576 -57.9969,0.1576 -2.6792,0.9456 -13.0809,2.364 -23.1673,3.152 -20.9608,2.0488 -56.5785,7.7224 -58.9425,9.6136 -0.788,0.6304 -4.0976,1.7336 -7.092,2.364 -12.4505,2.364 -43.3401,10.5592 -44.9162,11.6624 -0.788,0.788 -8.35284,3.3096 -16.54804,5.6737 -8.1952,2.364 -16.3904,5.2008 -18.124,6.304 -1.7336,0.9456 -7.092,3.152 -11.8201,4.728 -4.728,1.576 -12.608,4.728 -17.6512,7.092 -4.8856,2.5216 -10.5592,4.8856 -12.608,5.516 -9.2985,2.9944 -44.7585,20.9609 -79.273,40.1881 -26.1617,14.4992 -68.241,42.7097 -89.9898,60.2033 -30.7321,24.7433 -51.693,44.601 -70.605,67.453 -20.1728,24.2705 -26.9497,36.2481 -34.9873,61.4642 -3.152,9.7712 -3.7824,39.4 -1.1032,42.8673 0.9456,1.1032 2.2064,4.8856 2.8368,8.3528 1.576,8.668 7.5648,27.1072 11.5048,34.6721 1.7337,3.4672 8.0377,16.0752 14.0265,28.0528 5.8312,11.9776 12.1352,24.4281 13.7112,27.5801 3.94,7.5648 11.6624,27.4225 14.6568,37.3513 2.9945,9.9288 3.3097,43.0249 0.6305,52.7961 -1.1033,3.94 -3.1521,9.9288 -4.7281,13.396 -1.576,3.4672 -4.4128,10.2441 -6.4616,14.9721 -2.0488,4.728 -4.8856,10.0864 -6.304,11.82 -1.4184,1.7336 -4.4128,6.1464 -6.7768,9.6136 -3.7824,5.516 -21.4337,23.1673 -35.6177,35.6177 -5.516,4.728 -46.9649,32.7809 -48.5409,32.7809 -0.788,0 -4.0976,1.8912 -7.5648,4.2552 -5.8312,3.94 -16.0753,9.7712 -41.7641,23.7976 -5.6736,3.1521 -11.1896,6.6193 -12.2929,7.7225 -1.1032,1.1032 -2.8368,2.0488 -3.6248,2.0488 -0.788,0 -6.6192,3.152 -12.9232,6.9344 -6.1464,3.7824 -13.7112,8.0376 -16.548,9.456 -2.8368,1.4184 -11.1897,6.6192 -18.5969,11.6624 -7.4072,4.8856 -14.972,9.7713 -16.548,10.7169 -1.7336,0.9456 -10.4016,7.5648 -19.3849,14.6568 -27.2648,21.4336 -58.1545,55.4753 -71.0777,78.1698 -17.6513,31.3625 -30.2593,57.5241 -38.6121,81.1642 -2.0488,5.6736 -4.0976,11.032 -4.728,11.82 -0.6304,0.9456 -3.4672,8.668 -6.304,17.336 -2.8369,8.6681 -5.6737,16.5481 -6.3041,17.3361 -0.6304,0.9456 -3.4672,8.668 -6.304,17.336 -2.8368,8.668 -5.6736,16.5481 -6.304,17.3361 -0.6304,0.9456 -3.7824,8.9832 -7.092,18.124 -3.3096,9.1408 -6.4616,17.336 -7.092,18.124 -0.6304,0.9457 -3.152,6.6193 -5.516,12.6081 -7.2497,17.9664 -30.7321,64.6161 -33.8841,66.9801 -0.6304,0.4728 -3.152,3.94 -5.516,7.8801 -15.4449,24.9008 -43.1825,49.8017 -61.6218,55.6329 -13.396,4.2552 -17.0208,4.2552 -24.1128,0.788 z"
       id="path4"
       style="stroke-width:0.788002" />
    <path
       d="m 408.81726,2378.5617 c -1.576,-0.3152 -2.8368,-1.8912 -2.8368,-3.6248 0,-7.2496 5.9889,-15.9176 22.5369,-32.9385 38.2969,-39.2425 57.8393,-64.7737 82.5826,-107.1682 13.8688,-24.1129 49.9593,-99.2883 58.7849,-122.9283 1.2608,-2.9944 4.8856,-11.3473 8.1952,-18.5969 3.3097,-7.092 5.9889,-13.396 5.9889,-13.8688 0,-3.3096 27.58,-57.9969 37.3513,-73.9146 3.6248,-5.9888 8.668,-14.184 11.032,-18.124 11.1896,-18.4393 23.9552,-34.3569 46.3345,-57.997 14.4992,-15.2872 20.6456,-20.488 37.3513,-31.52 17.6512,-11.8201 15.76,-8.5105 -11.0321,19.0696 -12.4504,12.608 -25.8464,27.1073 -29.7864,32.1505 -9.6136,12.1352 -21.9065,29.7865 -21.9065,31.2049 0,0.6304 -2.0488,3.94 -4.5704,7.5648 -9.9288,14.4992 -24.5856,42.8673 -34.0417,65.7193 -2.364,5.6736 -5.8312,13.8689 -7.88,18.1241 -1.8912,4.4128 -4.4128,10.7168 -5.516,14.184 -1.1032,3.4672 -2.8368,7.7224 -3.94,9.456 -1.1032,1.7336 -4.2552,9.9289 -7.092,18.1241 -2.8368,8.1952 -5.6736,15.76 -6.304,16.548 -0.6304,0.9456 -3.7824,8.9832 -7.0921,18.1241 -3.3096,9.1408 -6.4616,17.336 -7.092,18.124 -0.788,0.9456 -2.8368,5.8312 -4.728,11.032 -1.8912,5.2008 -5.8312,14.4993 -8.668,20.4881 -2.8368,6.1464 -9.2984,19.8576 -14.184,30.732 -5.0432,10.8745 -10.4017,21.4337 -11.8201,23.6401 -1.576,2.2064 -4.728,7.88 -7.092,12.608 -2.364,4.728 -4.8856,8.9833 -5.516,9.4561 -0.6304,0.4728 -2.0488,2.5216 -3.152,4.728 -2.9944,5.8312 -19.8576,31.2048 -24.9009,37.3513 -35.7752,44.2857 -63.6705,65.8769 -81.0066,62.2521 z"
       id="path5"
       style="stroke-width:0.788002" />
    <path
       d="m 1160.8863,2313.4727 c -6.9344,-2.8368 -14.184,-9.2984 -26.004,-23.64 -15.6025,-18.7545 -27.7377,-37.8241 -37.9817,-59.7306 -2.2064,-4.728 -5.6736,-11.82 -7.5648,-15.76 -1.8912,-3.94 -5.8313,-14.4992 -8.6681,-23.64 -2.9944,-9.1409 -5.8312,-17.1785 -6.4616,-18.1241 -0.6304,-0.788 -3.4672,-10.7168 -6.1464,-22.064 -2.8368,-11.1897 -5.6736,-21.9065 -6.4616,-23.6401 -0.9456,-1.7336 -3.7824,-13.396 -6.304,-26.0041 -2.6792,-12.608 -5.516,-24.2704 -6.304,-26.004 -0.788,-1.7336 -3.7824,-13.3961 -6.4617,-26.0041 -2.6792,-12.608 -5.8312,-25.6888 -6.9344,-29.1561 -1.2608,-3.4672 -4.4128,-15.1296 -7.2496,-26.004 -2.6792,-10.8744 -5.6736,-20.8033 -6.304,-22.0641 -0.788,-1.2608 -3.6248,-9.7712 -6.304,-18.912 -2.6792,-9.1408 -5.516,-17.1784 -6.1464,-18.1241 -0.6304,-0.788 -2.8368,-6.4616 -4.728,-12.608 -1.8912,-5.9888 -5.20094,-14.4992 -7.09214,-18.912 -9.456,-20.4881 -11.032,-28.2105 -3.152,-13.8689 2.364,4.0977 5.67364,9.4561 7.24974,11.8201 3.7824,5.516 17.8088,35.1449 22.852,48.3833 2.0488,5.6736 4.4128,10.8744 5.2008,11.82 0.6304,0.9456 3.6248,8.5104 6.4616,16.7057 2.8368,8.1952 5.6736,15.76 6.304,16.548 0.6304,0.9456 3.7825,9.7712 7.0921,19.7 3.152,9.9289 6.7768,20.3305 7.88,22.8521 1.1032,2.6792 3.6248,10.4016 5.516,17.336 1.8912,6.9344 4.4128,14.8145 5.516,17.3361 1.2608,2.6792 4.4128,12.608 7.2496,22.064 2.8368,9.6136 5.6736,18.4393 6.304,19.7001 0.788,1.2608 3.9401,10.5592 7.0921,20.488 2.9944,9.9288 6.1464,18.9121 6.9344,19.7001 0.6304,0.9456 2.6792,6.1464 4.5704,11.82 6.4616,18.7544 25.8464,58.3121 36.7209,74.3874 3.3096,4.8856 5.9888,9.456 5.9888,9.9288 0,0.4728 5.3584,8.8256 11.82,18.4392 12.4504,18.4393 14.4992,23.3249 15.2873,37.5089 0.4728,7.7224 0.1576,8.668 -2.6793,8.9832 -1.7336,0.1576 -4.8856,-0.3152 -7.092,-1.2608 z"
       id="path6"
       style="stroke-width:0.788002" />
    <path
       d="m 1525.416,2079.909 c -6.4616,-9.9288 -6.7768,-12.608 -7.4072,-54.6873 -0.6304,-48.541 -4.4128,-61.937 -24.1129,-87.7834 -14.8144,-19.7001 -46.3345,-47.2802 -66.0345,-57.997 -4.2553,-2.364 -8.8257,-5.2008 -10.0865,-6.304 -1.2608,-1.1032 -6.304,-3.94 -11.032,-6.4616 -4.728,-2.364 -8.9832,-4.8856 -9.456,-5.3584 -1.4184,-1.576 -27.7377,-14.0265 -40.3457,-19.0697 -6.7768,-2.6792 -15.2872,-6.1464 -18.9121,-7.7224 -3.4672,-1.576 -11.9776,-4.8856 -18.912,-7.092 -6.7768,-2.364 -14.6568,-5.2008 -17.336,-6.4616 -2.8368,-1.2608 -11.9777,-3.94 -20.4881,-6.1464 -8.668,-2.2064 -16.7056,-4.5704 -17.9664,-5.3584 -4.8856,-2.6793 -42.8673,-11.3473 -88.8866,-20.0153 -15.4449,-2.9944 -30.5745,-6.7768 -33.8841,-8.5104 l -5.6736,-3.152 6.304,0.788 c 3.4672,0.3152 14.184,1.1032 23.64,1.576 22.5369,1.1032 58.9426,5.2008 63.0402,7.092 1.7336,0.6304 8.8256,2.2064 15.76,3.152 18.1241,2.5216 51.5353,9.2984 55.1602,11.032 1.7336,0.788 11.9776,3.6248 22.852,6.304 10.7168,2.6793 20.3305,5.5161 21.2761,6.1465 0.788,0.6304 7.5648,3.152 14.972,5.6736 7.4072,2.364 16.2328,5.516 19.8576,7.2496 3.4672,1.576 10.2441,4.4128 14.9721,6.1464 24.428,9.6136 68.8713,35.6177 88.8866,52.0081 15.1296,12.4505 35.1449,33.4113 43.1825,45.3889 3.6248,5.3585 8.8256,14.9721 11.3472,21.2761 2.5216,6.304 5.2008,12.4504 5.9888,13.8688 7.4072,13.3961 7.4072,78.0122 0.1576,90.9354 -0.9456,1.576 -2.9944,6.6193 -4.728,11.6625 -3.4672,9.2984 -9.7712,15.6024 -12.1352,11.82 z"
       id="path7"
       style="stroke-width:0.788002" />
    <path
       d="m 708.57326,1690.0057 c -15.4449,-1.8912 -26.0041,-32.9385 -17.4937,-51.8506 6.6192,-14.6568 24.5857,-26.792 34.5145,-23.3248 3.94,1.2608 9.2984,8.9832 14.4992,20.8032 2.2064,5.0433 2.0488,5.6737 -1.7336,14.4993 -2.5216,5.9888 -4.2552,7.88 -7.7224,8.668 -2.5216,0.4728 -6.6192,2.9944 -9.2984,5.516 -4.8856,4.728 -10.5592,12.4504 -9.456,13.0808 0.3152,0.1576 2.0488,1.1032 3.7824,2.0488 2.0488,1.1032 3.152,3.4673 3.152,6.3041 0,4.8856 -1.1032,5.3584 -10.244,4.2552 z"
       id="path8"
       style="stroke-width:0.788002" />
    <path
       d="m 899.11206,1675.8216 c -0.1576,-0.788 -0.1576,-2.6792 0,-4.5704 0.4728,-5.9888 -2.9944,-17.6512 -8.668,-29.7864 -7.7224,-16.3905 -7.092,-22.3793 3.7824,-32.3081 8.5104,-8.0376 16.3904,-11.032 28.0529,-11.032 17.8088,0.1576 27.1072,9.6136 25.3736,26.3192 -1.576,15.2873 -13.5536,35.1449 -20.9608,35.1449 -2.8368,0 -5.9888,2.0488 -9.7712,5.9888 -8.5105,8.9832 -17.1785,14.0264 -17.8089,10.244 z"
       id="path9"
       style="stroke-width:0.788002" />
  </g>
  <text
     xml:space="preserve"
     id="text1"
     style="font-style:normal;font-weight:normal;font-size:40px;line-height:1.25;font-family:sans-serif;white-space:pre;shape-inside:url(#rect1);display:inline;fill:#4B5F62;fill-opacity:1;stroke:none"
     transform="matrix(2.583271,0,0,2.583271,-377.07374,-2976.7817)"><tspan
       x="594.23828"
       y="2864.5315"
       id="tspan2">__</tspan></text>
  <path
     id="text2"
     style="font-style:normal;font-weight:normal;font-size:40px;line-height:1.25;font-family:sans-serif;white-space:pre;shape-inside:url(#rect2);display:inline;fill:#4B5F62;fill-opacity:1;stroke:none;stroke-width:2.58326"
     d="m 11436.699,1283.5061 v 257.8225 c 0,8.2409 0.979,24.3269 2.942,48.2648 1.962,23.5455 3.535,39.246 4.712,47.0943 h -7.654 c -46.699,-63.5727 -113.412,-95.3591 -200.138,-95.3591 -84.371,0 -149.902,29.6247 -196.601,88.8804 -46.306,59.2563 -69.461,141.6655 -69.461,247.2275 0,106.3469 23.155,188.563 69.461,246.6418 46.306,58.0787 111.447,87.1149 195.425,87.1149 89.081,0 156.185,-32.7658 201.314,-98.301 h 4.707 l 15.894,86.5295 h 85.353 v -915.9156 z m -2119.6797,121.2572 -42.3822,137.741 -92.4174,42.3817 v 50.6209 h 91.242 v 376.1386 c 0,133.0317 63.1768,199.5477 189.5373,199.5477 21.1912,0 41.9913,-2.157 62.3973,-6.4736 20.7985,-3.9241 36.103,-8.0447 45.9137,-12.3612 v -81.2322 c -9.4187,3.532 -23.3476,6.6732 -41.7916,9.4201 -18.4437,2.7471 -34.535,4.1173 -48.2698,4.1173 -31.7864,0 -56.7069,-10.0068 -74.7584,-30.0205 -17.659,-20.0138 -26.4889,-48.6589 -26.4889,-85.9392 v -373.197 h 186.6009 v -82.4074 h -186.6009 v -148.3362 z m -5148.212,136.5653 c -43.1666,0 -81.2353,7.845 -114.1989,23.542 -32.9636,15.6967 -61.9995,41.2062 -87.1146,76.5243 h -4.7126 l -14.1271,-88.2954 h -87.1148 v 935.9314 h 105.9545 v -265.4766 c 0,-23.9378 -1.5731,-51.2078 -4.7126,-81.817 l -2.3508,-24.1374 h 7.0634 c 46.6984,62.3953 113.4071,93.5933 200.1328,93.5933 84.3711,0 149.9077,-29.6247 196.6063,-88.881 46.6984,-59.2558 70.0458,-141.6652 70.0458,-247.227 0,-105.9543 -23.3474,-187.9727 -70.0458,-246.0513 -46.3062,-58.4715 -111.4471,-87.7053 -195.4256,-87.7053 z m 1048.9492,0 c -39.6348,0 -76.3282,10.986 -110.0767,32.9618 -33.7482,21.9758 -62.9823,54.3508 -87.7047,97.1251 h -4.7127 l -11.7708,-118.316 h -87.1199 v 646.3222 h 105.9544 v -344.9423 c 0,-40.4195 8.2409,-77.1075 24.7227,-110.0711 16.4819,-33.3565 39.2456,-59.454 68.2849,-78.2907 29.4321,-18.8359 61.2186,-28.2545 95.3596,-28.2545 22.7601,0 46.1078,2.7454 70.0454,8.2396 l 12.952,-97.7105 c -21.9757,-4.7092 -47.2873,-7.0636 -75.9342,-7.0636 z m 774.058,0 c -94.9666,0 -168.7439,29.4316 -221.3286,88.2955 -52.5849,58.4711 -78.8757,140.2915 -78.8757,245.4611 0,67.4969 12.1636,126.7515 36.494,177.7666 24.33,51.015 59.0596,90.2556 104.1885,117.7251 45.1285,27.0776 96.9285,40.6163 155.3994,40.6163 94.1823,0 167.9596,-29.6247 221.3293,-88.881 53.3695,-59.2558 80.0512,-141.6652 80.0512,-247.227 0,-102.8148 -26.8798,-184.047 -80.6414,-243.6953 -53.3701,-60.0407 -125.5742,-90.0613 -216.6167,-90.0613 z m 1076.0236,0 c -41.5971,0 -79.27,8.8297 -113.0185,26.4886 -33.356,17.659 -59.2559,42.1838 -77.6997,73.5777 h -5.8832 l -15.8931,-88.2954 h -85.3538 v 646.3222 h 105.9544 v -334.9321 c 0,-83.1935 13.7363,-143.0418 41.2061,-179.5373 27.8622,-36.4955 71.6141,-54.7433 131.2626,-54.7433 45.521,0 78.8805,12.7573 100.0716,38.2649 21.5831,25.5078 32.3714,63.7691 32.3714,114.7841 v 416.1637 h 105.3692 v -356.7132 c 0,-71.8136 14.1273,-125.1817 42.3818,-160.1071 28.2544,-34.9258 72.4022,-52.3924 132.443,-52.3924 87.5105,0 131.2621,51.0189 131.2621,153.049 v 416.1637 h 104.7794 v -420.876 c 0,-82.8014 -18.2478,-143.0354 -54.7432,-180.7081 -36.1029,-37.6725 -90.6482,-56.509 -163.6394,-56.509 -45.5207,0 -86.3347,9.418 -122.4376,28.2546 -35.7108,18.836 -63.9654,45.5177 -84.7635,80.0512 h -5.8882 c -30.6095,-72.2062 -96.5362,-108.3058 -197.7814,-108.3058 z m 1449.8152,0 c -43.1666,0 -81.2353,7.845 -114.1989,23.542 -32.9636,15.6967 -61.9994,41.2062 -87.1145,76.5243 h -4.7126 l -14.1271,-88.2954 h -87.1151 v 935.9314 h 105.9548 v -265.4766 c 0,-23.9378 -1.5732,-51.2078 -4.7126,-81.817 l -2.3513,-24.1374 h 7.0639 c 46.6984,62.3953 113.4072,93.5933 200.1326,93.5933 84.3715,0 149.9081,-29.6247 196.6061,-88.881 46.6987,-59.2558 70.0462,-141.6652 70.0459,-247.227 0,-105.9543 -23.3472,-187.9727 -70.0459,-246.0513 -46.3059,-58.4715 -111.4466,-87.7053 -195.4253,-87.7053 z m 1745.3077,0 c -87.511,0 -156.97,30.8018 -208.378,92.4125 -51.407,61.2181 -77.1144,143.6272 -77.1144,247.227 0,102.8153 27.4734,183.6563 82.4124,242.5198 55.332,58.4708 131.459,87.7053 228.387,87.7053 42.775,0 79.859,-3.1361 111.252,-9.415 31.395,-6.2787 64.947,-17.0723 100.658,-32.3766 v -93.0029 c -41.597,17.6592 -77.895,29.6247 -108.897,35.9033 -31.001,5.8867 -63.767,8.8297 -98.3,8.8297 -64.75,0 -114.784,-19.0293 -150.102,-57.0945 -35.318,-38.0648 -53.962,-93.7924 -55.924,-167.1758 h 442.658 v -64.1578 c 0,-89.4731 -24.134,-160.307 -72.403,-212.4995 -48.268,-52.5848 -113.017,-78.8755 -194.249,-78.8755 z m -1.181,86.5296 c 49.446,0 87.707,15.6952 114.784,47.0892 27.077,31.394 41.012,77.3075 41.796,137.7405 h -329.049 c 5.494,-58.0785 22.955,-103.4036 52.387,-135.9744 29.432,-32.5715 69.459,-48.8553 120.082,-48.8553 z m 989.498,1.1757 c 64.358,0 111.449,19.227 141.273,57.6845 30.217,38.0652 45.324,102.0336 45.324,191.8987 v 19.4249 c 0,80.0545 -14.909,137.7407 -44.733,173.0591 -29.432,34.926 -76.33,52.3868 -140.688,52.3868 -55.724,0 -98.496,-20.6023 -128.321,-61.8068 -29.431,-41.2045 -44.147,-101.8342 -44.147,-181.8885 0,-80.4467 14.913,-142.2534 44.738,-185.4204 29.824,-43.5592 72.008,-65.3383 126.554,-65.3383 z m -7101.3106,1.1751 c 55.7247,0 98.6946,20.9982 128.9115,62.9876 30.6092,41.597 45.9135,101.8306 45.9135,180.7078 0,78.4847 -15.3043,139.7032 -45.9135,183.6547 -30.2169,43.9513 -72.4005,65.9288 -126.555,65.9288 -65.1423,0 -112.2334,-19.425 -141.2727,-58.275 -29.0397,-39.2423 -43.5574,-102.6171 -43.5574,-190.1277 v -20.6058 c 0.7847,-77.3073 15.303,-134.009 43.5574,-170.1123 28.6468,-36.103 74.9514,-54.1581 138.9162,-54.1581 z m 1838.9005,0 c 62.3956,0 109.6841,20.6026 141.8628,61.8072 32.5715,40.8119 48.8552,101.8373 48.8552,183.069 0,81.2319 -16.086,143.0385 -48.2642,185.4202 -32.179,41.9898 -79.0775,62.9825 -140.688,62.9825 -62.3949,0 -109.6791,-20.9927 -141.8576,-62.9825 -31.7863,-42.3817 -47.6795,-104.1883 -47.6795,-185.4202 0,-163.2484 62.588,-244.8762 187.7713,-244.8762 z m 2509.9457,0 c 55.7239,0 98.6946,20.9982 128.9112,62.9876 30.6092,41.597 45.9135,101.8306 45.9135,180.7078 0,78.4847 -15.3043,139.7032 -45.9135,183.6547 -30.2166,43.9513 -72.4006,65.9288 -126.5549,65.9288 -65.1426,0 -112.2336,-19.425 -141.2726,-58.275 -29.0399,-39.2423 -43.5574,-102.6171 -43.5574,-190.1277 v -20.6058 c 0.7849,-77.3073 15.3029,-134.009 43.5574,-170.1123 28.647,-36.103 74.9511,-54.1581 138.9163,-54.1581 z" />
  <text
     xml:space="preserve"
     style="font-style:normal;font-weight:normal;font-size:103.331px;line-height:1.25;font-family:sans-serif;fill:#4B5F62;fill-opacity:1;stroke:none;stroke-width:2.58326"
     x="7795.8032"
     y="79.163254"
     id="text3"><tspan
       sodipodi:role="line"
       id="tspan3"
       x="7795.8032"
       y="79.163254"
       style="stroke-width:2.58326">`</tspan></text>
  <text
     xml:space="preserve"
     id="text4"
     style="font-style:normal;font-weight:normal;font-size:40px;line-height:1.25;font-family:sans-serif;white-space:pre;shape-inside:url(#rect4);display:inline;fill:##4B5F62;fill-opacity:1;stroke:none"
     transform="translate(-35.923351,655.20011)" />
</svg>
