<?xml version="1.0" encoding="UTF-8" standalone="no"?>
<svg
   version="1.0"
   width="4910px"
   height="3682px"
   viewBox="0 0 4910 3682"
   preserveAspectRatio="xMidYMid meet"
   id="svg9"
   sodipodi:docname="stylized-light-text.svg"
   inkscape:version="1.3 (0e150ed6c4, 2023-07-21)"
   xmlns:inkscape="http://www.inkscape.org/namespaces/inkscape"
   xmlns:sodipodi="http://sodipodi.sourceforge.net/DTD/sodipodi-0.dtd"
   xmlns="http://www.w3.org/2000/svg"
   xmlns:svg="http://www.w3.org/2000/svg">
  <defs
     id="defs9">
    <rect
       x="528.21212"
       y="2839.1401"
       width="4610.8516"
       height="676.77178"
       id="rect2" />
    <rect
       x="594.23864"
       y="2828.1357"
       width="3570.934"
       height="594.23864"
       id="rect1" />
    <rect
       x="1426.1583"
       y="2892.6797"
       width="2143.5208"
       height="399.04921"
       id="rect9" />
  </defs>
  <sodipodi:namedview
     id="namedview9"
     pagecolor="#505050"
     bordercolor="#eeeeee"
     borderopacity="1"
     inkscape:showpageshadow="0"
     inkscape:pageopacity="0"
     inkscape:pagecheckerboard="0"
     inkscape:deskcolor="#d1d1d1"
     inkscape:zoom="0.18174517"
     inkscape:cx="2167.8705"
     inkscape:cy="1950.5333"
     inkscape:window-width="1920"
     inkscape:window-height="1017"
     inkscape:window-x="1912"
     inkscape:window-y="123"
     inkscape:window-maximized="1"
     inkscape:current-layer="svg9"
     showguides="true" />
  <g
     fill="#000000"
     id="g9"
     transform="matrix(0.88526553,0,0,0.88526553,7.0056737,204.98028)"
     style="fill:#ffffff;fill-opacity:1">
    <path
       d="m 1049.6205,2496.9196 -4.5704,-9.1408 -1.1032,-54.3722 c -0.6305,-37.5089 -1.7337,-58.1545 -3.3097,-66.3497 -3.3096,-16.8633 -12.608,-43.4977 -22.064,-62.8826 -9.7712,-20.1728 -15.4448,-29.7864 -36.24814,-61.7793 -4.8856,-7.5648 -8.9832,-14.3417 -8.9832,-14.8145 0,-0.4728 -1.4184,-2.8368 -3.3096,-5.0432 -2.9944,-4.0976 -17.6513,-26.9496 -24.1129,-38.4545 -1.7336,-2.8368 -6.304,-10.5592 -10.0864,-17.0208 -10.5592,-17.8088 -34.0417,-65.4042 -38.7697,-78.8002 -2.364,-6.4616 -4.8856,-12.4504 -5.6736,-13.396 -0.6304,-0.788 -3.7824,-10.0864 -6.9344,-20.4881 -3.152,-10.4016 -6.4616,-20.0152 -7.092,-21.4336 -0.788,-1.2608 -3.6249,-12.608 -6.4617,-25.2161 -2.8368,-12.4504 -5.6736,-23.7976 -6.4616,-25.3736 -1.7336,-3.6248 -5.8312,-35.3025 -6.7768,-53.269 -0.3152,-8.1952 -0.3152,-13.2384 0,-11.032 0.4728,2.2064 1.4184,5.3584 2.2064,7.092 0.6304,1.7336 1.7336,6.304 2.364,10.244 1.4184,10.2441 8.668,42.5522 10.244,45.5466 0.788,1.4184 3.6249,10.7168 6.4617,20.6456 2.6792,9.9288 5.516,18.9121 6.1464,19.7001 0.788,0.9456 2.8368,6.1464 4.728,11.82 1.8912,5.6736 5.0432,13.8688 7.092,18.124 1.8912,4.4128 5.516,12.4505 8.0376,18.1241 2.364,5.6736 5.2008,11.3472 6.1464,12.608 0.9456,1.2608 4.4128,7.7224 7.5649,14.184 7.092,14.6569 15.76,30.2593 21.7488,38.9273 2.5216,3.6248 4.5704,6.9344 4.5704,7.4072 0,0.4728 4.728,7.7225 10.7168,16.0753 5.8313,8.1952 12.4505,17.9664 14.9721,21.5912 2.364,3.6248 5.6736,8.3528 7.4072,10.5593 1.7336,2.2064 10.0864,13.5536 18.7544,25.216 8.66814,11.6624 17.17854,23.0097 18.75454,25.2161 1.576,2.2064 7.4072,10.7168 12.9232,18.912 5.516,8.1952 11.3472,17.0209 13.0808,19.5425 4.5705,6.6192 23.1673,43.9705 23.1673,46.3345 0,1.1032 1.4184,4.8856 2.9944,8.668 19.7001,43.4977 15.2872,143.1011 -7.4072,167.0564 -2.2064,2.364 -4.5704,4.2552 -5.2008,4.2552 -0.6304,0 -3.152,-4.0976 -5.516,-8.9832 z"
       id="path1"
       style="stroke-width:0.788002;fill:#ffffff;fill-opacity:1" />
    <path
       d="m 871.37436,2462.7203 c -24.2704,-10.5592 -83.6858,-63.8282 -108.429,-97.0818 -6.6192,-9.1409 -12.608,-17.6513 -13.0808,-18.9121 -0.4728,-1.2608 -1.7336,-3.4672 -2.8369,-4.728 -7.7224,-9.1408 -22.2216,-43.4977 -25.0584,-59.1001 -0.6304,-3.4672 -2.0488,-7.2496 -2.9944,-8.5104 -2.364,-2.9945 -2.364,-51.8506 0,-57.0514 0.9456,-2.0488 3.6248,-13.7112 5.9888,-25.8464 2.364,-12.1353 5.9888,-26.9497 8.0376,-33.0961 2.0488,-5.9888 5.516,-18.1241 7.88,-26.7921 2.2064,-8.668 4.728,-17.0208 5.6736,-18.5968 1.4185,-2.5216 9.6137,-34.0417 14.9721,-57.0514 5.6736,-25.216 10.0864,-69.9745 10.0864,-103.8586 0,-11.5048 0.6304,-21.4337 1.4184,-22.2217 0.788,-0.9456 1.7336,-3.3096 2.0488,-5.516 0.3152,-2.2064 1.2608,3.94 2.2064,13.3961 2.0488,25.0584 1.7336,90.1474 -0.6304,109.5322 -2.9944,23.1673 -7.88,52.1657 -9.6136,55.9481 -0.788,1.7337 -3.7824,14.1841 -6.6192,27.5801 -2.8368,13.396 -5.516,25.2161 -6.304,26.0041 -1.576,2.2064 -8.8257,40.1881 -10.2441,53.5841 -0.6304,6.1464 -1.7336,11.82 -2.5216,12.9232 -3.3096,4.2552 0.788,38.2969 7.4073,60.8338 2.8368,9.9288 15.2872,34.3569 18.912,37.3513 1.2608,1.1032 2.364,2.8368 2.364,3.7824 0,1.7336 12.7656,18.2816 23.7977,30.732 3.6248,3.9401 23.3248,24.2705 43.9705,45.0738 34.5144,34.8296 38.1393,38.9272 44.7585,51.6929 3.94,7.5648 7.2496,14.184 7.2496,14.4992 0,2.0488 -8.1952,0 -18.4393,-4.5704 z"
       id="path2"
       style="stroke-width:0.788002;fill:#ffffff;fill-opacity:1" />
    <path
       d="m 1245.9905,2428.6786 c -29.6288,-5.516 -39.2425,-8.9832 -51.5353,-18.2816 -6.304,-4.728 -11.5048,-9.2984 -11.5048,-10.0864 0,-0.9457 3.7824,-3.4673 8.3528,-5.6737 7.88,-4.0976 9.456,-4.2552 47.5953,-5.516 21.7489,-0.6304 45.0737,-2.2064 52.0081,-3.4672 30.2593,-5.516 71.2354,-32.3081 95.8211,-62.7249 16.0752,-20.0153 32.308,-47.9105 38.1393,-66.0346 1.576,-4.728 3.3096,-9.456 4.0976,-10.244 2.0488,-2.6792 7.4072,-31.9929 8.3528,-46.8073 1.576,-20.8033 -2.8368,-56.1058 -8.5104,-68.241 -0.788,-1.7336 -3.6248,-8.5104 -6.4617,-14.972 -2.6792,-6.4616 -5.3584,-12.1352 -5.9888,-12.6081 -0.4728,-0.4728 -3.6248,-4.8856 -6.9344,-10.0864 -11.5048,-17.336 -54.0569,-58.3121 -75.1754,-72.1809 -2.2064,-1.4184 -10.244,-6.9345 -17.8088,-12.2929 -7.7224,-5.2008 -16.548,-10.8744 -19.7001,-12.608 -3.152,-1.7336 -12.9232,-7.7224 -21.5912,-13.396 -8.668,-5.516 -16.2328,-10.0865 -16.8632,-10.2441 -0.788,0 -6.3041,-3.152 -12.6081,-7.092 -6.304,-3.94 -11.9776,-7.092 -12.7656,-7.092 -0.6304,0 -5.0432,-2.5216 -9.7712,-5.3584 -4.728,-2.9944 -11.5049,-7.092 -15.2873,-8.9832 -3.7824,-1.8912 -7.092,-3.94 -7.5648,-4.5704 -0.4728,-0.6304 -3.3096,-2.364 -6.304,-3.94 -2.9944,-1.5761 -9.6136,-5.5161 -14.4992,-8.9833 -5.0432,-3.3096 -10.4017,-6.6192 -11.8201,-7.092 -1.576,-0.6304 -10.0864,-6.1464 -19.0696,-12.1352 -8.9832,-6.1464 -17.4936,-11.9776 -19.0696,-12.7656 -7.7225,-4.4129 -36.7209,-28.3681 -52.1658,-43.1825 -15.1296,-14.6569 -9.6136,-11.8201 11.6625,5.8312 3.4672,2.6792 7.092,5.0432 8.1952,5.0432 0.9456,0 2.2064,1.1032 2.8368,2.364 0.4728,1.2608 1.8912,2.364 3.3096,2.364 1.2608,0 2.364,0.788 2.364,1.576 0,0.9456 0.6304,1.576 1.576,1.576 0.788,0 6.6192,3.3096 12.9232,7.2496 25.5313,16.0753 51.693,29.9441 107.6411,56.5785 60.9913,29.1561 115.8363,57.3666 122.9283,63.3554 0.9456,0.788 4.728,3.152 8.668,5.3584 3.94,2.2064 12.608,8.1952 19.5424,13.2384 6.7769,5.2009 14.8145,11.1897 17.9665,13.2385 16.548,11.032 49.0137,48.5409 60.3609,69.8169 2.0488,3.7824 4.5704,7.8801 5.516,9.1409 2.0488,2.5216 5.3585,11.1896 9.6137,24.428 1.2608,4.4128 2.9944,8.668 3.6248,9.456 0.788,0.9456 2.5216,8.3529 4.0976,16.5481 4.8856,27.58 2.5216,87.153 -4.0976,98.973 -0.788,1.4184 -2.9944,8.1952 -4.728,14.972 -6.1465,22.5369 -24.5857,60.361 -39.4001,80.5338 -9.9289,13.5537 -33.2537,38.7697 -35.7753,38.7697 -0.788,0 -2.8368,1.4184 -4.4128,3.152 -6.9344,7.7225 -41.6065,26.7921 -48.6985,26.7921 -0.9456,0 -3.7825,1.1032 -6.3041,2.364 -13.7112,7.092 -62.7249,9.2984 -90.7778,3.94 z"
       id="path3"
       style="stroke-width:0.788002;fill:#ffffff;fill-opacity:1" />
    <path
       d="m 163.43356,2417.3314 c -5.516,-2.6792 -6.4616,-3.7824 -6.4616,-8.3528 0,-6.6192 2.8368,-9.9289 23.3248,-26.7921 17.4936,-14.4992 35.3025,-34.0417 46.1769,-50.5897 3.4672,-5.0432 6.6192,-9.9288 7.4072,-10.8744 2.0488,-2.8368 17.6513,-30.2593 17.6513,-31.3625 0,-0.4728 2.5216,-5.9888 5.6736,-12.2928 8.8256,-17.9665 23.1672,-52.7962 36.0905,-87.153 2.8368,-7.7225 7.092,-18.2817 9.2984,-23.3249 2.2064,-5.0432 4.0976,-9.7712 4.0976,-10.7168 0,-0.788 2.364,-6.6192 5.3584,-12.9233 2.8368,-6.304 5.8312,-13.0808 6.4616,-15.2872 2.6792,-8.3528 17.9665,-40.1881 26.3193,-54.3721 18.124,-31.0473 25.0585,-40.6609 44.4433,-61.937 19.5424,-21.5912 49.9593,-47.1225 72.6538,-61.1489 4.2552,-2.6792 12.4504,-7.7224 18.124,-11.3472 5.6736,-3.6249 14.4993,-8.9833 19.7001,-11.8201 23.3248,-13.2384 37.0361,-20.9608 46.4921,-26.1616 14.0264,-7.8801 19.3848,-11.0321 28.8408,-17.3361 4.5705,-2.8368 11.3473,-7.092 15.1297,-9.2984 6.9344,-3.7824 23.9552,-15.6024 28.5256,-19.7 1.2608,-1.1032 5.2009,-4.0977 8.6681,-6.6193 11.1896,-8.0376 27.58,-24.9008 35.7752,-37.036 11.3473,-16.3905 14.1841,-24.4281 15.1297,-43.3401 1.1032,-23.7977 -2.0488,-33.8841 -24.5857,-79.9034 -10.4016,-21.1185 -20.3304,-42.2369 -21.9064,-46.9649 -1.576,-4.7281 -3.3096,-8.9833 -3.7824,-9.4561 -0.6304,-0.4728 -2.6792,-7.5648 -4.728,-15.76 -4.7281,-19.5425 -5.2009,-51.8505 -0.788,-68.5562 5.0432,-19.2272 22.3792,-52.6385 35.46,-67.9257 2.2064,-2.6792 6.6193,-7.88 9.6137,-11.6625 5.9888,-7.5648 33.7264,-35.1448 44.4433,-44.2857 3.7824,-3.152 9.6136,-8.1952 13.0808,-11.1896 3.4672,-2.9944 13.0808,-10.5592 21.276,-16.7056 8.1953,-6.1464 17.1785,-12.9233 19.8577,-15.1297 2.8368,-2.364 5.3584,-4.0976 5.9888,-4.0976 0.4728,0 9.6136,-5.8312 20.4881,-12.9232 10.7168,-7.2496 23.3248,-15.1296 27.8952,-17.8088 4.728,-2.5217 13.0809,-7.4073 18.7545,-10.5593 5.6736,-3.152 21.276,-11.1896 34.672,-17.8088 13.3961,-6.6192 27.5801,-13.5536 31.5201,-15.6025 3.94,-2.0488 8.8256,-4.2552 11.032,-4.8856 2.2065,-0.6304 7.5649,-2.8368 12.1353,-5.0432 22.6944,-10.5592 79.74584,-28.9984 113.15704,-36.7209 11.3473,-2.5216 23.3249,-5.3584 26.7921,-6.1464 24.7433,-6.1464 87.6258,-10.244 122.9283,-8.0376 23.0097,1.576 54.6873,6.4616 60.5185,9.456 1.4184,0.6304 8.1953,3.152 15.1297,5.516 30.5745,10.4017 59.5729,33.0961 70.4473,55.1602 8.5105,17.0208 12.2929,41.7641 9.4561,61.4641 -5.2008,36.0905 -23.1673,79.5882 -47.5953,114.7331 -4.7281,6.9344 -10.5593,15.1296 -12.7657,18.4392 -17.8088,26.6345 -77.2242,85.8922 -118.8307,118.9883 -3.3096,2.6792 -8.9832,7.2496 -12.608,10.244 -3.6248,2.9944 -15.4448,12.6081 -26.004,21.2761 -27.5801,22.3792 -30.2593,24.7432 -49.6442,44.2857 -27.58,27.8953 -31.52,34.6721 -30.4168,50.7473 0.9456,13.2384 4.728,20.9609 17.1784,34.1993 14.3416,15.1296 21.1185,19.8576 57.0513,38.9273 10.0865,5.516 18.4393,10.7168 18.4393,11.82 0,2.8368 -0.4728,2.6792 -19.3849,-3.3096 -20.488,-6.6192 -37.3513,-14.4992 -53.8993,-25.5313 -16.2328,-10.7168 -23.9552,-18.912 -32.4657,-34.5144 -6.9344,-12.4505 -6.9344,-12.7657 -6.9344,-28.3681 0,-14.8144 0.3152,-16.3904 5.3584,-26.6345 13.0809,-26.1616 39.5577,-52.9537 100.8643,-102.125 3.94,-3.152 9.456,-7.5648 11.9776,-9.7712 2.6792,-2.2064 11.5048,-9.6137 19.8576,-16.5481 52.9538,-43.9705 93.2995,-86.9954 117.8851,-126.2379 4.728,-7.4072 9.7712,-15.1296 11.1896,-17.336 1.5761,-2.2064 5.0433,-9.2984 7.8801,-15.76 2.8368,-6.4617 5.6736,-12.6081 6.4616,-13.3961 2.6792,-3.6248 9.1408,-29.4712 10.7168,-43.6553 1.8912,-17.1784 0.1576,-36.8785 -4.2552,-46.6497 -6.1464,-13.8688 -30.8897,-33.4113 -49.1713,-38.9273 -2.2064,-0.6304 -6.9344,-2.5216 -10.5592,-4.0976 -8.8257,-3.94 -33.5689,-8.9832 -50.4322,-10.4016 -7.2496,-0.4728 -13.5536,-1.576 -14.0264,-2.364 -1.1032,-1.7336 -52.0081,-1.576 -57.9969,0.1576 -2.6792,0.9456 -13.0809,2.364 -23.1673,3.152 -20.9608,2.0488 -56.5785,7.7224 -58.9425,9.6136 -0.788,0.6304 -4.0976,1.7336 -7.092,2.364 -12.4505,2.364 -43.3401,10.5592 -44.9162,11.6624 -0.788,0.788 -8.35284,3.3096 -16.54804,5.6737 -8.1952,2.364 -16.3904,5.2008 -18.124,6.304 -1.7336,0.9456 -7.092,3.152 -11.8201,4.728 -4.728,1.576 -12.608,4.728 -17.6512,7.092 -4.8856,2.5216 -10.5592,4.8856 -12.608,5.516 -9.2985,2.9944 -44.7585,20.9609 -79.273,40.1881 -26.1617,14.4992 -68.241,42.7097 -89.9898,60.2033 -30.7321,24.7433 -51.693,44.601 -70.605,67.453 -20.1728,24.2705 -26.9497,36.2481 -34.9873,61.4642 -3.152,9.7712 -3.7824,39.4 -1.1032,42.8673 0.9456,1.1032 2.2064,4.8856 2.8368,8.3528 1.576,8.668 7.5648,27.1072 11.5048,34.6721 1.7337,3.4672 8.0377,16.0752 14.0265,28.0528 5.8312,11.9776 12.1352,24.4281 13.7112,27.5801 3.94,7.5648 11.6624,27.4225 14.6568,37.3513 2.9945,9.9288 3.3097,43.0249 0.6305,52.7961 -1.1033,3.94 -3.1521,9.9288 -4.7281,13.396 -1.576,3.4672 -4.4128,10.2441 -6.4616,14.9721 -2.0488,4.728 -4.8856,10.0864 -6.304,11.82 -1.4184,1.7336 -4.4128,6.1464 -6.7768,9.6136 -3.7824,5.516 -21.4337,23.1673 -35.6177,35.6177 -5.516,4.728 -46.9649,32.7809 -48.5409,32.7809 -0.788,0 -4.0976,1.8912 -7.5648,4.2552 -5.8312,3.94 -16.0753,9.7712 -41.7641,23.7976 -5.6736,3.1521 -11.1896,6.6193 -12.2929,7.7225 -1.1032,1.1032 -2.8368,2.0488 -3.6248,2.0488 -0.788,0 -6.6192,3.152 -12.9232,6.9344 -6.1464,3.7824 -13.7112,8.0376 -16.548,9.456 -2.8368,1.4184 -11.1897,6.6192 -18.5969,11.6624 -7.4072,4.8856 -14.972,9.7713 -16.548,10.7169 -1.7336,0.9456 -10.4016,7.5648 -19.3849,14.6568 -27.2648,21.4336 -58.1545,55.4753 -71.0777,78.1698 -17.6513,31.3625 -30.2593,57.5241 -38.6121,81.1642 -2.0488,5.6736 -4.0976,11.032 -4.728,11.82 -0.6304,0.9456 -3.4672,8.668 -6.304,17.336 -2.8369,8.6681 -5.6737,16.5481 -6.3041,17.3361 -0.6304,0.9456 -3.4672,8.668 -6.304,17.336 -2.8368,8.668 -5.6736,16.5481 -6.304,17.3361 -0.6304,0.9456 -3.7824,8.9832 -7.092,18.124 -3.3096,9.1408 -6.4616,17.336 -7.092,18.124 -0.6304,0.9457 -3.152,6.6193 -5.516,12.6081 -7.2497,17.9664 -30.7321,64.6161 -33.8841,66.9801 -0.6304,0.4728 -3.152,3.94 -5.516,7.8801 -15.4449,24.9008 -43.1825,49.8017 -61.6218,55.6329 -13.396,4.2552 -17.0208,4.2552 -24.1128,0.788 z"
       id="path4"
       style="stroke-width:0.788002;fill:#ffffff;fill-opacity:1" />
    <path
       d="m 408.81726,2378.5617 c -1.576,-0.3152 -2.8368,-1.8912 -2.8368,-3.6248 0,-7.2496 5.9889,-15.9176 22.5369,-32.9385 38.2969,-39.2425 57.8393,-64.7737 82.5826,-107.1682 13.8688,-24.1129 49.9593,-99.2883 58.7849,-122.9283 1.2608,-2.9944 4.8856,-11.3473 8.1952,-18.5969 3.3097,-7.092 5.9889,-13.396 5.9889,-13.8688 0,-3.3096 27.58,-57.9969 37.3513,-73.9146 3.6248,-5.9888 8.668,-14.184 11.032,-18.124 11.1896,-18.4393 23.9552,-34.3569 46.3345,-57.997 14.4992,-15.2872 20.6456,-20.488 37.3513,-31.52 17.6512,-11.8201 15.76,-8.5105 -11.0321,19.0696 -12.4504,12.608 -25.8464,27.1073 -29.7864,32.1505 -9.6136,12.1352 -21.9065,29.7865 -21.9065,31.2049 0,0.6304 -2.0488,3.94 -4.5704,7.5648 -9.9288,14.4992 -24.5856,42.8673 -34.0417,65.7193 -2.364,5.6736 -5.8312,13.8689 -7.88,18.1241 -1.8912,4.4128 -4.4128,10.7168 -5.516,14.184 -1.1032,3.4672 -2.8368,7.7224 -3.94,9.456 -1.1032,1.7336 -4.2552,9.9289 -7.092,18.1241 -2.8368,8.1952 -5.6736,15.76 -6.304,16.548 -0.6304,0.9456 -3.7824,8.9832 -7.0921,18.1241 -3.3096,9.1408 -6.4616,17.336 -7.092,18.124 -0.788,0.9456 -2.8368,5.8312 -4.728,11.032 -1.8912,5.2008 -5.8312,14.4993 -8.668,20.4881 -2.8368,6.1464 -9.2984,19.8576 -14.184,30.732 -5.0432,10.8745 -10.4017,21.4337 -11.8201,23.6401 -1.576,2.2064 -4.728,7.88 -7.092,12.608 -2.364,4.728 -4.8856,8.9833 -5.516,9.4561 -0.6304,0.4728 -2.0488,2.5216 -3.152,4.728 -2.9944,5.8312 -19.8576,31.2048 -24.9009,37.3513 -35.7752,44.2857 -63.6705,65.8769 -81.0066,62.2521 z"
       id="path5"
       style="stroke-width:0.788002;fill:#ffffff;fill-opacity:1" />
    <path
       d="m 1160.8863,2313.4727 c -6.9344,-2.8368 -14.184,-9.2984 -26.004,-23.64 -15.6025,-18.7545 -27.7377,-37.8241 -37.9817,-59.7306 -2.2064,-4.728 -5.6736,-11.82 -7.5648,-15.76 -1.8912,-3.94 -5.8313,-14.4992 -8.6681,-23.64 -2.9944,-9.1409 -5.8312,-17.1785 -6.4616,-18.1241 -0.6304,-0.788 -3.4672,-10.7168 -6.1464,-22.064 -2.8368,-11.1897 -5.6736,-21.9065 -6.4616,-23.6401 -0.9456,-1.7336 -3.7824,-13.396 -6.304,-26.0041 -2.6792,-12.608 -5.516,-24.2704 -6.304,-26.004 -0.788,-1.7336 -3.7824,-13.3961 -6.4617,-26.0041 -2.6792,-12.608 -5.8312,-25.6888 -6.9344,-29.1561 -1.2608,-3.4672 -4.4128,-15.1296 -7.2496,-26.004 -2.6792,-10.8744 -5.6736,-20.8033 -6.304,-22.0641 -0.788,-1.2608 -3.6248,-9.7712 -6.304,-18.912 -2.6792,-9.1408 -5.516,-17.1784 -6.1464,-18.1241 -0.6304,-0.788 -2.8368,-6.4616 -4.728,-12.608 -1.8912,-5.9888 -5.20094,-14.4992 -7.09214,-18.912 -9.456,-20.4881 -11.032,-28.2105 -3.152,-13.8689 2.364,4.0977 5.67364,9.4561 7.24974,11.8201 3.7824,5.516 17.8088,35.1449 22.852,48.3833 2.0488,5.6736 4.4128,10.8744 5.2008,11.82 0.6304,0.9456 3.6248,8.5104 6.4616,16.7057 2.8368,8.1952 5.6736,15.76 6.304,16.548 0.6304,0.9456 3.7825,9.7712 7.0921,19.7 3.152,9.9289 6.7768,20.3305 7.88,22.8521 1.1032,2.6792 3.6248,10.4016 5.516,17.336 1.8912,6.9344 4.4128,14.8145 5.516,17.3361 1.2608,2.6792 4.4128,12.608 7.2496,22.064 2.8368,9.6136 5.6736,18.4393 6.304,19.7001 0.788,1.2608 3.9401,10.5592 7.0921,20.488 2.9944,9.9288 6.1464,18.9121 6.9344,19.7001 0.6304,0.9456 2.6792,6.1464 4.5704,11.82 6.4616,18.7544 25.8464,58.3121 36.7209,74.3874 3.3096,4.8856 5.9888,9.456 5.9888,9.9288 0,0.4728 5.3584,8.8256 11.82,18.4392 12.4504,18.4393 14.4992,23.3249 15.2873,37.5089 0.4728,7.7224 0.1576,8.668 -2.6793,8.9832 -1.7336,0.1576 -4.8856,-0.3152 -7.092,-1.2608 z"
       id="path6"
       style="stroke-width:0.788002;fill:#ffffff;fill-opacity:1" />
    <path
       d="m 1525.416,2079.909 c -6.4616,-9.9288 -6.7768,-12.608 -7.4072,-54.6873 -0.6304,-48.541 -4.4128,-61.937 -24.1129,-87.7834 -14.8144,-19.7001 -46.3345,-47.2802 -66.0345,-57.997 -4.2553,-2.364 -8.8257,-5.2008 -10.0865,-6.304 -1.2608,-1.1032 -6.304,-3.94 -11.032,-6.4616 -4.728,-2.364 -8.9832,-4.8856 -9.456,-5.3584 -1.4184,-1.576 -27.7377,-14.0265 -40.3457,-19.0697 -6.7768,-2.6792 -15.2872,-6.1464 -18.9121,-7.7224 -3.4672,-1.576 -11.9776,-4.8856 -18.912,-7.092 -6.7768,-2.364 -14.6568,-5.2008 -17.336,-6.4616 -2.8368,-1.2608 -11.9777,-3.94 -20.4881,-6.1464 -8.668,-2.2064 -16.7056,-4.5704 -17.9664,-5.3584 -4.8856,-2.6793 -42.8673,-11.3473 -88.8866,-20.0153 -15.4449,-2.9944 -30.5745,-6.7768 -33.8841,-8.5104 l -5.6736,-3.152 6.304,0.788 c 3.4672,0.3152 14.184,1.1032 23.64,1.576 22.5369,1.1032 58.9426,5.2008 63.0402,7.092 1.7336,0.6304 8.8256,2.2064 15.76,3.152 18.1241,2.5216 51.5353,9.2984 55.1602,11.032 1.7336,0.788 11.9776,3.6248 22.852,6.304 10.7168,2.6793 20.3305,5.5161 21.2761,6.1465 0.788,0.6304 7.5648,3.152 14.972,5.6736 7.4072,2.364 16.2328,5.516 19.8576,7.2496 3.4672,1.576 10.2441,4.4128 14.9721,6.1464 24.428,9.6136 68.8713,35.6177 88.8866,52.0081 15.1296,12.4505 35.1449,33.4113 43.1825,45.3889 3.6248,5.3585 8.8256,14.9721 11.3472,21.2761 2.5216,6.304 5.2008,12.4504 5.9888,13.8688 7.4072,13.3961 7.4072,78.0122 0.1576,90.9354 -0.9456,1.576 -2.9944,6.6193 -4.728,11.6625 -3.4672,9.2984 -9.7712,15.6024 -12.1352,11.82 z"
       id="path7"
       style="stroke-width:0.788002;fill:#ffffff;fill-opacity:1" />
    <path
       d="m 708.57326,1690.0057 c -15.4449,-1.8912 -26.0041,-32.9385 -17.4937,-51.8506 6.6192,-14.6568 24.5857,-26.792 34.5145,-23.3248 3.94,1.2608 9.2984,8.9832 14.4992,20.8032 2.2064,5.0433 2.0488,5.6737 -1.7336,14.4993 -2.5216,5.9888 -4.2552,7.88 -7.7224,8.668 -2.5216,0.4728 -6.6192,2.9944 -9.2984,5.516 -4.8856,4.728 -10.5592,12.4504 -9.456,13.0808 0.3152,0.1576 2.0488,1.1032 3.7824,2.0488 2.0488,1.1032 3.152,3.4673 3.152,6.3041 0,4.8856 -1.1032,5.3584 -10.244,4.2552 z"
       id="path8"
       style="stroke-width:0.788002;fill:#ffffff;fill-opacity:1" />
    <path
       d="m 899.11206,1675.8216 c -0.1576,-0.788 -0.1576,-2.6792 0,-4.5704 0.4728,-5.9888 -2.9944,-17.6512 -8.668,-29.7864 -7.7224,-16.3905 -7.092,-22.3793 3.7824,-32.3081 8.5104,-8.0376 16.3904,-11.032 28.0529,-11.032 17.8088,0.1576 27.1072,9.6136 25.3736,26.3192 -1.576,15.2873 -13.5536,35.1449 -20.9608,35.1449 -2.8368,0 -5.9888,2.0488 -9.7712,5.9888 -8.5105,8.9832 -17.1785,14.0264 -17.8089,10.244 z"
       id="path9"
       style="stroke-width:0.788002;fill:#ffffff;fill-opacity:1" />
  </g>
  <text
     xml:space="preserve"
     id="text1"
     style="font-style:normal;font-weight:normal;font-size:40px;line-height:1.25;font-family:sans-serif;white-space:pre;shape-inside:url(#rect1);display:inline;fill:#000000;fill-opacity:1;stroke:none"><tspan
       x="594.23828"
       y="2864.5315"
       id="tspan1">__</tspan></text>
  <path
     id="text2"
     style="font-style:normal;font-weight:normal;font-size:40px;line-height:1.25;font-family:sans-serif;white-space:pre;shape-inside:url(#rect2);display:inline;fill:#ffffff;fill-opacity:1;stroke:none"
     d="M 3404.5801 2899.183 L 3404.5801 2984.7299 C 3404.5801 2987.4642 3404.9056 2992.8028 3405.5567 3000.7455 C 3406.2077 3008.558 3406.7286 3013.7663 3407.1192 3016.3705 L 3404.5801 3016.3705 C 3389.0853 2995.2768 3366.9499 2984.7299 3338.1739 2984.7299 C 3310.1791 2984.7299 3288.4343 2994.5606 3272.9395 3014.2221 C 3257.5749 3033.8835 3249.8926 3061.2273 3249.8926 3096.2533 C 3249.8926 3131.5397 3257.5749 3158.8184 3272.9395 3178.0892 C 3288.3041 3197.3601 3309.9187 3206.9955 3337.7832 3206.9955 C 3367.3405 3206.9955 3389.6062 3196.1231 3404.5801 3174.3783 L 3406.1426 3174.3783 L 3411.4161 3203.0892 L 3439.7364 3203.0892 L 3439.7364 2899.183 L 3404.5801 2899.183 z M 2701.2598 2939.4174 L 2687.1973 2985.1205 L 2656.5332 2999.183 L 2656.5332 3015.9799 L 2686.8067 3015.9799 L 2686.8067 3140.7846 C 2686.8067 3184.9251 2707.7703 3206.9955 2749.6973 3206.9955 C 2756.7285 3206.9955 2763.6296 3206.2793 2770.4004 3204.8471 C 2777.3015 3203.545 2782.3796 3202.1778 2785.6348 3200.7455 L 2785.6348 3173.7924 C 2782.5098 3174.9642 2777.8874 3176.0059 2771.7676 3176.9174 C 2765.6478 3177.8288 2760.3093 3178.2846 2755.752 3178.2846 C 2745.2051 3178.2846 2736.9369 3174.9642 2730.9473 3168.3236 C 2725.0879 3161.683 2722.1582 3152.1778 2722.1582 3139.808 L 2722.1582 3015.9799 L 2784.0723 3015.9799 L 2784.0723 2988.6361 L 2722.1582 2988.6361 L 2722.1582 2939.4174 L 2701.2598 2939.4174 z M 993.05668 2984.7299 C 978.73378 2984.7299 966.10354 2987.334 955.16605 2992.5424 C 944.22857 2997.7507 934.59313 3006.2143 926.2598 3017.933 L 924.6973 3017.933 L 920.0098 2988.6361 L 891.10355 2988.6361 L 891.10355 3299.183 L 926.2598 3299.183 L 926.2598 3211.0971 C 926.2598 3203.1544 925.73897 3194.1049 924.6973 3183.9486 L 923.91605 3175.9408 L 926.2598 3175.9408 C 941.75458 3196.6439 963.89004 3206.9955 992.66605 3206.9955 C 1020.6608 3206.9955 1042.4057 3197.1647 1057.9004 3177.5033 C 1073.3952 3157.8419 1081.1426 3130.4981 1081.1426 3095.4721 C 1081.1426 3060.3158 1073.3952 3033.1022 1057.9004 3013.8314 C 1042.5359 2994.4304 1020.9212 2984.7299 993.05668 2984.7299 z M 1341.1036 2984.7299 C 1327.9525 2984.7299 1315.778 2988.3757 1304.5801 2995.6674 C 1293.3822 3002.959 1283.6817 3013.7012 1275.4786 3027.8939 L 1273.9161 3027.8939 L 1270.0098 2988.6361 L 1241.1036 2988.6361 L 1241.1036 3203.0892 L 1276.2598 3203.0892 L 1276.2598 3088.6361 C 1276.2598 3075.2247 1278.9942 3063.0502 1284.4629 3052.1127 C 1289.9317 3041.045 1297.4838 3032.3861 1307.1192 3026.1361 C 1316.8848 3019.8861 1327.4317 3016.7611 1338.7598 3016.7611 C 1346.3119 3016.7611 1354.0593 3017.6726 1362.002 3019.4955 L 1366.2989 2987.0736 C 1359.0072 2985.5111 1350.6088 2984.7299 1341.1036 2984.7299 z M 1597.9395 2984.7299 C 1566.4291 2984.7299 1541.9499 2994.4955 1524.502 3014.0267 C 1507.0541 3033.4278 1498.3301 3060.5763 1498.3301 3095.4721 C 1498.3301 3117.8679 1502.3666 3137.5294 1510.4395 3154.4564 C 1518.5124 3171.3835 1530.0359 3184.4044 1545.0098 3193.5189 C 1559.9837 3202.5033 1577.1713 3206.9955 1596.5723 3206.9955 C 1627.8223 3206.9955 1652.3015 3197.1647 1670.0098 3177.5033 C 1687.7181 3157.8419 1696.5723 3130.4981 1696.5723 3095.4721 C 1696.5723 3061.3575 1687.653 3034.4043 1669.8145 3014.6127 C 1652.1062 2994.6908 1628.1478 2984.7299 1597.9395 2984.7299 z M 1954.9707 2984.7299 C 1941.1687 2984.7299 1928.6686 2987.6596 1917.4707 2993.5189 C 1906.403 2999.3783 1897.8093 3007.5163 1891.6895 3017.933 L 1889.7364 3017.933 L 1884.4629 2988.6361 L 1856.1426 2988.6361 L 1856.1426 3203.0892 L 1891.2989 3203.0892 L 1891.2989 3091.9564 C 1891.2989 3064.3523 1895.8562 3044.4955 1904.9707 3032.3861 C 1914.2155 3020.2768 1928.7338 3014.2221 1948.5254 3014.2221 C 1963.6296 3014.2221 1974.6973 3018.4538 1981.7286 3026.9174 C 1988.89 3035.3809 1992.4707 3048.0762 1992.4707 3065.0033 L 1992.4707 3203.0892 L 2027.4317 3203.0892 L 2027.4317 3084.7299 C 2027.4317 3060.9018 2032.1192 3043.1934 2041.4942 3031.6049 C 2050.8692 3020.0163 2065.5176 3014.2221 2085.4395 3014.2221 C 2114.4759 3014.2221 2128.9942 3031.1492 2128.9942 3065.0033 L 2128.9942 3203.0892 L 2163.7598 3203.0892 L 2163.7598 3063.4408 C 2163.7598 3035.9669 2157.7051 3015.9799 2145.5957 3003.4799 C 2133.6166 2990.9799 2115.5176 2984.7299 2091.2989 2984.7299 C 2076.1947 2984.7299 2062.653 2987.8549 2050.6739 2994.1049 C 2038.8249 3000.3549 2029.4499 3009.2091 2022.5489 3020.6674 L 2020.5957 3020.6674 C 2010.4395 2996.7091 1988.5645 2984.7299 1954.9707 2984.7299 z M 2436.0254 2984.7299 C 2421.7025 2984.7299 2409.0723 2987.334 2398.1348 2992.5424 C 2387.1973 2997.7507 2377.5619 3006.2143 2369.2286 3017.933 L 2367.6661 3017.933 L 2362.9786 2988.6361 L 2334.0723 2988.6361 L 2334.0723 3299.183 L 2369.2286 3299.183 L 2369.2286 3211.0971 C 2369.2286 3203.1544 2368.7077 3194.1049 2367.6661 3183.9486 L 2366.8848 3175.9408 L 2369.2286 3175.9408 C 2384.7233 3196.6439 2406.8588 3206.9955 2435.6348 3206.9955 C 2463.6296 3206.9955 2485.3744 3197.1647 2500.8692 3177.5033 C 2516.364 3157.8419 2524.1114 3130.4981 2524.1114 3095.4721 C 2524.1114 3060.3158 2516.364 3033.1022 2500.8692 3013.8314 C 2485.5046 2994.4304 2463.89 2984.7299 2436.0254 2984.7299 z M 3015.127 2984.7299 C 2986.0906 2984.7299 2963.0436 2994.9512 2945.9864 3015.3939 C 2928.9291 3035.7064 2920.4004 3063.0502 2920.4004 3097.4252 C 2920.4004 3131.5397 2929.515 3158.3627 2947.7442 3177.8939 C 2966.1035 3197.295 2991.364 3206.9955 3023.5254 3206.9955 C 3037.7181 3206.9955 3050.0228 3205.9538 3060.4395 3203.8705 C 3070.8561 3201.7872 3081.989 3198.2064 3093.8379 3193.1283 L 3093.8379 3162.2689 C 3080.0359 3168.1283 3067.9916 3172.0997 3057.7051 3174.183 C 3047.4187 3176.1361 3036.5463 3177.1127 3025.0879 3177.1127 C 3003.6036 3177.1127 2987.002 3170.7976 2975.2832 3158.1674 C 2963.5645 3145.5372 2957.3796 3127.0476 2956.7286 3102.6986 L 3103.6036 3102.6986 L 3103.6036 3081.4096 C 3103.6036 3051.7221 3095.5957 3028.2194 3079.5801 3010.9017 C 3063.5645 2993.4538 3042.0801 2984.7299 3015.127 2984.7299 z M 3014.7364 3013.4408 C 3031.1426 3013.4408 3043.8379 3018.6492 3052.8223 3029.0658 C 3061.8067 3039.4825 3066.4291 3054.7169 3066.6895 3074.7689 L 2957.5098 3074.7689 C 2959.3327 3055.4981 2965.127 3040.459 2974.8926 3029.6517 C 2984.6582 3018.8445 2997.9395 3013.4408 3014.7364 3013.4408 z M 3343.0567 3013.8314 C 3364.4108 3013.8314 3380.0359 3020.2117 3389.9317 3032.9721 C 3399.9577 3045.6023 3404.9707 3066.8263 3404.9707 3096.6439 L 3404.9707 3103.0892 C 3404.9707 3129.6517 3400.0228 3148.7924 3390.127 3160.5111 C 3380.3614 3172.0997 3364.8014 3177.8939 3343.4473 3177.8939 C 3324.9577 3177.8939 3310.765 3171.058 3300.8692 3157.3861 C 3291.1036 3143.7143 3286.2207 3123.597 3286.2207 3097.0346 C 3286.2207 3070.3419 3291.1687 3049.834 3301.0645 3035.5111 C 3310.9603 3021.058 3324.9577 3013.8314 3343.0567 3013.8314 z M 986.80668 3014.2221 C 1005.2962 3014.2221 1019.5541 3021.1882 1029.5801 3035.1205 C 1039.7364 3048.9226 1044.8145 3068.9096 1044.8145 3095.0814 C 1044.8145 3121.1231 1039.7364 3141.4356 1029.5801 3156.0189 C 1019.5541 3170.6023 1005.5567 3177.8939 987.58793 3177.8939 C 965.97337 3177.8939 950.34834 3171.4486 940.71293 3158.558 C 931.07752 3145.5372 926.2598 3124.5085 926.2598 3095.4721 L 926.2598 3088.6361 C 926.52022 3062.9851 931.33794 3044.17 940.71293 3032.1908 C 950.21813 3020.2117 965.58274 3014.2221 986.80668 3014.2221 z M 1596.9629 3014.2221 C 1617.666 3014.2221 1633.3562 3021.058 1644.0332 3034.7299 C 1654.8405 3048.2715 1660.2442 3068.519 1660.2442 3095.4721 C 1660.2442 3122.4252 1654.9056 3142.933 1644.2286 3156.9955 C 1633.5515 3170.9278 1617.9916 3177.8939 1597.5489 3177.8939 C 1576.8458 3177.8939 1561.1556 3170.9278 1550.4786 3156.9955 C 1539.9317 3142.933 1534.6582 3122.4252 1534.6582 3095.4721 C 1534.6582 3041.3054 1555.4265 3014.2221 1596.9629 3014.2221 z M 2429.7754 3014.2221 C 2448.265 3014.2221 2462.5228 3021.1882 2472.5489 3035.1205 C 2482.7051 3048.9226 2487.7832 3068.9096 2487.7832 3095.0814 C 2487.7832 3121.1231 2482.7051 3141.4356 2472.5489 3156.0189 C 2462.5228 3170.6023 2448.5254 3177.8939 2430.5567 3177.8939 C 2408.9421 3177.8939 2393.3171 3171.4486 2383.6817 3158.558 C 2374.0463 3145.5372 2369.2286 3124.5085 2369.2286 3095.4721 L 2369.2286 3088.6361 C 2369.489 3062.9851 2374.3067 3044.17 2383.6817 3032.1908 C 2393.1869 3020.2117 2408.5515 3014.2221 2429.7754 3014.2221 z M 527.43168 3239.0267 L 527.43168 3266.3705 L 691.8848 3266.3705 L 693.4473 3266.3705 L 857.90043 3266.3705 L 857.90043 3239.0267 L 693.4473 3239.0267 L 691.8848 3239.0267 L 527.43168 3239.0267 z M 3577.0411 3239.0267 L 3577.0411 3266.3705 L 3741.4942 3266.3705 L 3743.0567 3266.3705 L 3907.5098 3266.3705 L 3907.5098 3239.0267 L 3743.0567 3239.0267 L 3741.4942 3239.0267 L 3577.0411 3239.0267 z "
     transform="translate(962.88668,-1160.9662)" />
</svg>
